<svg xmlns="http://www.w3.org/2000/svg" width="23" height="23" viewBox="0 0 23 23" fill="none">
  <g clip-path="url(#clip0_7912_39627)">
    <path d="M12.9219 4.44552L9.26298 6.55821C6.83642 7.95934 6.00502 11.0625 7.40599 13.4893C7.7607 14.1038 8.22449 14.6159 8.75878 15.0155V16.1986C8.75878 18.4064 6.96923 20.1961 4.76172 20.1961C2.55421 20.1961 0.764664 18.4064 0.764664 16.1986V4.35687C0.764664 2.14912 2.55421 0.359375 4.76172 0.359375C5.39228 0.359375 5.98874 0.505405 6.51913 0.765494C6.62264 0.813998 6.72494 0.867321 6.82576 0.925536L12.9219 4.44552Z" fill="#404659"/>
    <path d="M16.8452 3.42358C18.757 2.3197 21.2016 2.97479 22.3053 4.88677C23.4091 6.79874 22.7541 9.24357 20.8423 10.3474L13.7984 14.4147C11.8867 15.5185 9.44211 14.8635 8.33836 12.9515C7.2346 11.0395 7.88962 8.59468 9.80138 7.4908L16.8452 3.42358Z" fill="#404659"/>
    <path d="M14.9126 6.85492C14.9126 4.64716 16.7022 2.85742 18.9097 2.85742C21.1172 2.85742 22.9067 4.64716 22.9067 6.85492V18.5041C22.9067 20.7119 21.1172 22.5016 18.9097 22.5016C16.7022 22.5016 14.9126 20.7119 14.9126 18.5041V6.85492Z" fill="#404659"/>
  </g>
  <defs>
    <clipPath id="clip0_7912_39627">
      <rect width="22.1419" height="22.1419" fill="white" transform="matrix(-1 0 0 1 22.9067 0.359375)"/>
    </clipPath>
  </defs>
</svg>